<?xml version="1.0" encoding="utf-8"?>
<svg version="1.0" xmlns="http://www.w3.org/2000/svg" width="2810.000000pt" height="1668.000000pt" viewBox="0 0 2810.000000 1668.000000" preserveAspectRatio="xMidYMid meet">
  <g transform="translate(0.000000,1668.000000) scale(0.100000,-0.100000)" fill="#000000" stroke="none">
    <path d="M4949 14488 c-1 -9 0 -3357 1 -3521 0 -5 19 5 43 23 23 17 122 86 220 153 98 67 242 167 320 222 78 55 242 169 365 254 l222 153 -1 671 c0 370 0 720 0 780 l1 107 7960 0 7960 0 0 -778 0 -778 245 -170 c135 -93 363 -251 507 -350 145 -100 298 -207 341 -238 l77 -56 0 1770 0 1770 -9130 0 c-7297 0 -9130 -3 -9131 -12z" style="fill: rgb(157, 42, 0);"/>
    <path d="M6940 11451 c-13 -9 -175 -120 -360 -247 -184 -126 -488 -335 -675 -464 -187 -128 -412 -284 -500 -345 -88 -61 -270 -187 -405 -280 -135 -93 -373 -257 -530 -365 -157 -108 -379 -261 -495 -340 -115 -79 -295 -203 -400 -275 -104 -72 -242 -167 -305 -210 -63 -43 -171 -117 -240 -165 -69 -48 -216 -149 -327 -226 -112 -76 -203 -141 -203 -144 1 -5 277 -198 1044 -727 177 -122 389 -268 471 -324 83 -56 209 -144 280 -194 72 -51 238 -165 370 -255 132 -90 355 -243 495 -340 140 -97 343 -237 450 -310 107 -74 305 -210 440 -304 135 -93 340 -235 455 -314 116 -80 262 -181 325 -225 63 -44 120 -82 127 -84 10 -4 13 134 13 693 l-1 699 -157 108 c-86 60 -283 195 -437 301 -154 105 -397 273 -540 372 -244 169 -405 280 -990 682 -291 201 -305 211 -305 222 0 8 122 93 695 484 110 75 229 157 265 182 150 105 403 280 680 469 162 111 349 239 415 286 66 46 165 115 220 152 55 37 112 77 128 90 l27 22 -2 696 -3 696 -25 -16z" style="fill: rgb(146, 155, 70);"/>
    <path d="M21195 10769 l0 -691 40 -33 c22 -18 148 -107 280 -197 132 -91 344 -236 470 -323 127 -87 313 -216 415 -285 102 -70 311 -214 465 -320 283 -196 532 -367 682 -469 46 -31 83 -59 83 -63 0 -4 -90 -69 -201 -145 -110 -76 -260 -179 -332 -228 -73 -50 -211 -145 -307 -211 -96 -66 -314 -217 -485 -335 -170 -119 -425 -294 -565 -389 -140 -95 -300 -206 -355 -245 -55 -39 -121 -86 -147 -104 l-48 -32 0 -694 c0 -382 4 -695 8 -695 10 0 305 201 755 513 65 45 164 114 220 153 56 38 254 176 440 305 186 129 364 252 395 273 203 140 694 478 837 576 94 64 296 204 450 310 154 107 370 256 480 331 110 76 232 159 270 187 92 65 451 313 543 375 39 27 72 53 72 57 0 4 -98 75 -217 157 -120 82 -445 306 -723 498 -278 191 -599 413 -715 493 -115 80 -309 213 -430 295 -121 83 -413 284 -650 447 -236 163 -511 352 -610 420 -99 68 -245 169 -325 224 -80 55 -211 145 -292 200 -81 56 -221 152 -312 213 -90 62 -170 115 -178 118 -11 4 -13 -113 -13 -686z" style="fill: rgb(146, 155, 70);"/>
    <path d="M9745 11184 c-154 -34 -302 -114 -422 -228 -131 -124 -208 -257 -254 -435 -22 -86 -27 -279 -10 -367 61 -311 293 -578 590 -679 208 -71 457 -55 657 41 232 112 408 322 474 569 33 121 38 305 12 415 -25 106 -77 228 -128 306 -107 163 -308 308 -505 364 -100 29 -314 36 -414 14z" style="fill-rule: nonzero; paint-order: fill; fill: rgb(85, 200, 218);"/>
    <path d="M 12569.4 11038.5 C 12567.9 11033.5 12567.9 10089.5 12569.4 10033.5 L 12571 9980.5 L 16148.1 9980 L 19725.2 9979.5 L 19725.2 10509.5 L 19725.2 11039.5 L 16148.1 11040 C 14180.3 11040.3 12571 11039.5 12569.4 11038.5 Z" style="fill: rgb(85, 200, 218);"/>
    <path d="M 12539 8913.66 C 12538 8850.66 12538 8702.66 12540 8132.65 L 12540 7910.65 L 16143 7912.65 L 19745 7915.65 L 19748 8448.66 L 19750 8980.66 L 16145 8980.66 L 12540 8980.66 L 12539 8913.66 Z" style="fill: rgb(85, 200, 218);"/>
    <path d="M 8751.58 8896 C 8611.58 8866 8499.58 8764 8452.58 8622 C 8432.58 8564 8431.58 8538 8431.58 8190 L 8431.58 7820 L 9951.58 7820 L 11471.6 7820 L 11471.6 8178 C 11471.6 8382 11466.6 8554 11460.6 8579 C 11423.6 8742 11293.6 8870 11137.6 8899 C 11049.6 8915 8826.58 8913 8751.58 8896 Z" style="fill: rgb(85, 200, 218);"/>
    <path d="M8414 6638 c-6 -10 -3 -1039 3 -1055 3 -8 1380 -11 5669 -11 l5664 0 0 534 0 534 -37 0 c-2503 5 -11296 3 -11299 -2z" style="fill: rgb(85, 200, 218);"/>
    <path d="M4952 4048 l3 -1763 9128 -3 9127 -2 0 1766 c0 1409 -3 1764 -12 1758 -7 -4 -103 -71 -213 -148 -110 -77 -299 -208 -420 -291 -121 -84 -287 -199 -370 -256 l-150 -104 -3 -778 -2 -777 -7960 -2 -7960 -3 0 777 0 777 -32 25 c-18 14 -116 83 -218 153 -102 69 -345 237 -540 373 -196 135 -361 249 -368 254 -9 6 -12 -361 -10 -1756z" style="fill: rgb(110, 144, 217);"/>
  </g>
</svg>